<?xml version="1.0" encoding="UTF-8" standalone="no"?>
<!-- Created with Inkscape (http://www.inkscape.org/) -->

<svg
   version="1.1"
   id="svg2"
   width="594.83142"
   height="595.48566"
   viewBox="0 0 594.83142 595.48565"
   sodipodi:docname="Pizza.ai"
   inkscape:export-filename="../../../donnu4/web/лаб7/Pizza.svg"
   inkscape:export-xdpi="96"
   inkscape:export-ydpi="96"
   xmlns:inkscape="http://www.inkscape.org/namespaces/inkscape"
   xmlns:sodipodi="http://sodipodi.sourceforge.net/DTD/sodipodi-0.dtd"
   xmlns="http://www.w3.org/2000/svg"
   xmlns:svg="http://www.w3.org/2000/svg">
  <defs
     id="defs6">
    <clipPath
       clipPathUnits="userSpaceOnUse"
       id="clipPath18">
      <path
         d="M 0,841.89 H 595.276 V 0 H 0 Z"
         id="path16" />
    </clipPath>
  </defs>
  <sodipodi:namedview
     id="namedview4"
     pagecolor="#ffffff"
     bordercolor="#666666"
     borderopacity="1.0"
     inkscape:showpageshadow="2"
     inkscape:pageopacity="0.0"
     inkscape:pagecheckerboard="0"
     inkscape:deskcolor="#d1d1d1"
     showgrid="false" />
  <g
     id="g10"
     inkscape:groupmode="layer"
     inkscape:label="Page 1"
     transform="matrix(1.3333333,0,0,-1.3333333,-130.83527,931.79913)">
    <g
       id="g12">
      <g
         id="g14"
         clip-path="url(#clipPath18)">
        <g
           id="g20"
           transform="translate(253.44,628.1699)">
          <path
             d="m 0,0 c 0,0 149.4,-32.04 219.24,-218.52 0,0 58.32,-42.12 65.52,27 0,0 -32.64,202.92 -256.32,256.2 0,0 -26.88,0.48 -36.24,-22.8 C -17.16,18.6 0,0 0,0"
             style="fill:#a97b50;fill-opacity:1;fill-rule:nonzero;stroke:none"
             id="path22" />
        </g>
        <g
           id="g24"
           transform="translate(253.44,628.1699)">
          <path
             d="m 0,0 c 0,0 149.4,-32.04 219.24,-218.52 0,0 58.32,-42.12 65.52,27 0,0 -32.64,202.92 -256.32,256.2 0,0 -26.88,0.48 -36.24,-22.8 C -17.16,18.6 0,0 0,0 Z"
             style="fill:none;stroke:#231f20;stroke-width:12;stroke-linecap:butt;stroke-linejoin:miter;stroke-miterlimit:10;stroke-dasharray:none;stroke-opacity:1"
             id="path26" />
        </g>
        <g
           id="g28"
           transform="translate(472.68,409.6498)">
          <path
             d="m 0,0 c 5.271,-21.844 -365.04,-147.84 -365.04,-147.84 0,0 90.459,271.56 131.447,347.209 5.984,11.044 10.913,17.913 14.353,19.151 C -192.24,228.24 -26.64,110.4 0,0"
             style="fill:#f7931d;fill-opacity:1;fill-rule:nonzero;stroke:none"
             id="path30" />
        </g>
        <g
           id="g32"
           transform="translate(472.68,409.6498)">
          <path
             d="m 0,0 c 5.271,-21.844 -365.04,-147.84 -365.04,-147.84 0,0 90.459,271.56 131.447,347.209 5.984,11.044 10.913,17.913 14.353,19.151 C -192.24,228.24 -26.64,110.4 0,0 Z"
             style="fill:none;stroke:#231f20;stroke-width:12;stroke-linecap:butt;stroke-linejoin:miter;stroke-miterlimit:10;stroke-dasharray:none;stroke-opacity:1"
             id="path34" />
        </g>
        <g
           id="g36"
           transform="translate(235.7904,599.3533)">
          <path
             d="m 0,0 -29.415,-65.668 c 6.519,-5.509 14.941,-8.835 24.145,-8.835 20.677,0 37.44,16.762 37.44,37.44 C 32.17,-18.176 18.181,-2.563 0,0"
             style="fill:#ef4136;fill-opacity:1;fill-rule:nonzero;stroke:none"
             id="path38" />
        </g>
        <g
           id="g40"
           transform="translate(235.7904,599.3533)">
          <path
             d="m 0,0 -29.415,-65.668 c 6.519,-5.509 14.941,-8.835 24.145,-8.835 20.677,0 37.44,16.762 37.44,37.44 C 32.17,-18.176 18.181,-2.563 0,0 Z"
             style="fill:none;stroke:#231f20;stroke-width:12;stroke-linecap:butt;stroke-linejoin:miter;stroke-miterlimit:10;stroke-dasharray:none;stroke-opacity:1"
             id="path42" />
        </g>
        <g
           id="g44"
           transform="translate(335.3865,344.5891)">
          <path
             d="m 0,0 c -6.095,8.744 -9.669,19.376 -9.669,30.842 0,29.824 24.177,54 54,54 25.165,0 46.309,-17.212 52.301,-40.506"
             style="fill:#ef4136;fill-opacity:1;fill-rule:nonzero;stroke:#231f20;stroke-width:12;stroke-linecap:butt;stroke-linejoin:miter;stroke-miterlimit:10;stroke-dasharray:none;stroke-opacity:1"
             id="path46" />
        </g>
        <g
           id="g48"
           transform="translate(336.6685,342.8264)">
          <path
             d="M 0,0 C -0.439,0.579 -0.866,1.166 -1.282,1.763"
             style="fill:#ef4136;fill-opacity:1;fill-rule:nonzero;stroke:#231f20;stroke-width:12;stroke-linecap:butt;stroke-linejoin:miter;stroke-miterlimit:10;stroke-dasharray:none;stroke-opacity:1"
             id="path50" />
        </g>
        <g
           id="g52"
           transform="translate(385.9578,496.5709)">
          <path
             d="m 0,0 c 0,-22.245 -18.033,-40.279 -40.279,-40.279 -22.245,0 -40.279,18.034 -40.279,40.279 0,22.245 18.034,40.279 40.279,40.279 C -18.033,40.279 0,22.245 0,0"
             style="fill:#ef4136;fill-opacity:1;fill-rule:nonzero;stroke:none"
             id="path54" />
        </g>
        <g
           id="g56"
           transform="translate(385.9578,496.5709)">
          <path
             d="m 0,0 c 0,-22.245 -18.033,-40.279 -40.279,-40.279 -22.245,0 -40.279,18.034 -40.279,40.279 0,22.245 18.034,40.279 40.279,40.279 C -18.033,40.279 0,22.245 0,0 Z"
             style="fill:none;stroke:#231f20;stroke-width:12;stroke-linecap:butt;stroke-linejoin:miter;stroke-miterlimit:10;stroke-dasharray:none;stroke-opacity:1"
             id="path58" />
        </g>
        <g
           id="g60"
           transform="translate(285.9133,425.3568)">
          <path
             d="m 0,0 c 0,-23.785 -19.282,-43.067 -43.067,-43.067 -23.785,0 -43.067,19.282 -43.067,43.067 0,23.785 19.282,43.067 43.067,43.067 C -19.282,43.067 0,23.785 0,0"
             style="fill:#ef4136;fill-opacity:1;fill-rule:nonzero;stroke:none"
             id="path62" />
        </g>
        <g
           id="g64"
           transform="translate(285.9133,425.3568)">
          <path
             d="m 0,0 c 0,-23.785 -19.282,-43.067 -43.067,-43.067 -23.785,0 -43.067,19.282 -43.067,43.067 0,23.785 19.282,43.067 43.067,43.067 C -19.282,43.067 0,23.785 0,0 Z"
             style="fill:none;stroke:#231f20;stroke-width:12;stroke-linecap:butt;stroke-linejoin:miter;stroke-miterlimit:10;stroke-dasharray:none;stroke-opacity:1"
             id="path66" />
        </g>
        <g
           id="g68"
           transform="translate(226.0389,319.5432)">
          <path
             d="m 0,0 c 0,22.245 -18.034,40.279 -40.279,40.279 -22.245,0 -40.279,-18.034 -40.279,-40.279 0,-16.021 9.355,-29.855 22.898,-36.344 15.526,5.431 33.853,11.891 53.741,18.998 C -1.408,-12.092 0,-6.211 0,0"
             style="fill:#ef4136;fill-opacity:1;fill-rule:nonzero;stroke:none"
             id="path70" />
        </g>
        <g
           id="g72"
           transform="translate(226.0389,319.5432)">
          <path
             d="m 0,0 c 0,22.245 -18.034,40.279 -40.279,40.279 -22.245,0 -40.279,-18.034 -40.279,-40.279 0,-16.021 9.355,-29.855 22.898,-36.344 15.526,5.431 33.853,11.891 53.741,18.998 C -1.408,-12.092 0,-6.211 0,0 Z"
             style="fill:none;stroke:#231f20;stroke-width:12;stroke-linecap:butt;stroke-linejoin:miter;stroke-miterlimit:10;stroke-dasharray:none;stroke-opacity:1"
             id="path74" />
        </g>
      </g>
    </g>
  </g>
</svg>
